<svg width="20" height="23" viewBox="0 0 20 23" fill="none" xmlns="http://www.w3.org/2000/svg">
<path fill-rule="evenodd" clip-rule="evenodd" d="M17 8.99996C17 4.94077 14.7616 2.12344 11.8654 1.27766C11.7605 1.00632 11.5947 0.754065 11.3695 0.5424C10.5997 -0.180841 9.40026 -0.180841 8.6305 0.5424C8.40571 0.753604 8.2402 1.00522 8.13529 1.27589C5.23534 2.118 3 4.92916 3 8.99996C3 11.6339 2.46898 13.1097 1.48596 14.1793C1.32161 14.3581 0.876353 14.7677 0.574714 15.0452L0.574691 15.0452L0.574666 15.0452L0.574615 15.0453C0.431925 15.1765 0.321391 15.2782 0.287965 15.3119L0 15.6039V19.014H6.08798C6.29383 20.0761 6.87009 20.7866 7.9122 21.4226C9.19415 22.2049 10.8059 22.2049 12.0878 21.4226C13.0075 20.8613 13.6242 19.9988 13.8743 19.014H20V15.6039L19.712 15.3119C19.6817 15.2812 19.5758 15.1834 19.4372 15.0556L19.437 15.0554L19.437 15.0554L19.437 15.0554C19.1362 14.778 18.6822 14.3592 18.5154 14.1769C17.5317 13.1024 17 11.6246 17 8.99996ZM11.7367 19.014H8.17861C8.3199 19.2769 8.56071 19.4753 8.95402 19.7153C9.59627 20.1073 10.4037 20.1073 11.046 19.7153C11.3434 19.5339 11.5758 19.2937 11.7367 19.014ZM17.0402 15.5274C17.2506 15.7573 17.7016 16.1774 18 16.4519V17.0141H2V16.4524C2.29608 16.1811 2.74844 15.7613 2.95849 15.5327C4.29423 14.0794 5 12.1178 5 8.99999C5 5.21988 7.33277 3.01237 10 3.01237C12.6597 3.01237 15 5.23128 15 8.99999C15 12.1078 15.706 14.07 17.0402 15.5274Z" fill="white"/>
</svg>
