<svg width="20" height="13" viewBox="0 0 20 13" fill="none" xmlns="http://www.w3.org/2000/svg">
<path d="M15.9999 10.3691C14.8145 10.3691 14.2026 10.7994 13.6629 11.1789C13.1888 11.5121 12.8143 11.7754 11.9997 11.7754C11.1852 11.7754 10.8107 11.5121 10.3368 11.1789C9.79706 10.7993 9.18518 10.3691 7.99973 10.3691C6.81442 10.3691 6.20255 10.7994 5.66284 11.1789C5.1889 11.5121 4.81445 11.7754 3.99994 11.7754C3.18542 11.7754 2.81097 11.5121 2.33704 11.1789C1.79718 10.7994 1.1853 10.3691 0 10.3691V11.541C0.814667 11.541 1.18896 11.8042 1.6629 12.1376C2.20276 12.5171 2.81448 12.9472 3.99994 12.9472C5.18524 12.9472 5.79712 12.5171 6.33682 12.1376C6.81076 11.8042 7.18521 11.541 7.99973 11.541C8.81439 11.541 9.18869 11.8042 9.66278 12.1376C10.2025 12.5171 10.8144 12.9472 11.9997 12.9472C13.1851 12.9472 13.797 12.5171 14.3369 12.1376C14.8108 11.8044 15.1852 11.541 15.9999 11.541C16.8146 11.541 17.1889 11.8042 17.663 12.1376C18.2027 12.5171 18.8145 12.9472 20 12.9472V11.7754C19.1853 11.7754 18.8109 11.5121 18.3369 11.1789C17.7971 10.7994 17.1852 10.3691 15.9999 10.3691Z" fill="#3F433E"/>
<path d="M15.9999 3.45642C14.8145 3.45642 14.2026 3.88657 13.6629 4.26605C13.1888 4.5993 12.8143 4.86267 11.9997 4.86267C11.1852 4.86267 10.8107 4.5993 10.3368 4.26605C9.79706 3.88657 9.18518 3.45642 7.99973 3.45642C6.81442 3.45642 6.20255 3.88657 5.66284 4.26605C5.1889 4.5993 4.81445 4.86267 3.99994 4.86267C3.18542 4.86267 2.81097 4.5993 2.33704 4.26605C1.79718 3.88657 1.1853 3.45642 0 3.45642V4.6283C0.814667 4.6283 1.18896 4.89151 1.6629 5.22476C2.20276 5.6044 2.81448 6.03455 3.99994 6.03455C5.18524 6.03455 5.79712 5.60425 6.33682 5.22476C6.81076 4.89151 7.18521 4.6283 7.99973 4.6283C8.81439 4.6283 9.18869 4.89151 9.66278 5.22476C10.2025 5.6044 10.8144 6.03455 11.9997 6.03455C13.1851 6.03455 13.797 5.60425 14.3369 5.22476C14.8108 4.89151 15.1852 4.6283 15.9999 4.6283C16.8146 4.6283 17.1889 4.89151 17.663 5.22476C18.2027 5.6044 18.8145 6.03455 20 6.03455V4.86267C19.1853 4.86267 18.8109 4.5993 18.3369 4.26605C17.7971 3.88657 17.1852 3.45642 15.9999 3.45642Z" fill="#3F433E"/>
<path d="M15.9999 6.91284C14.8145 6.91284 14.2026 7.34299 13.6629 7.72247C13.1888 8.05573 12.8143 8.31909 11.9997 8.31909C11.1852 8.31909 10.8107 8.05573 10.3368 7.72247C9.79706 7.34299 9.18518 6.91284 7.99973 6.91284C6.81442 6.91284 6.20255 7.34299 5.66284 7.72247C5.1889 8.05573 4.81445 8.31909 3.99994 8.31909C3.18542 8.31909 2.81097 8.05573 2.33704 7.72247C1.79718 7.34299 1.1853 6.91284 0 6.91284V8.08472C0.814667 8.08472 1.18896 8.34793 1.6629 8.68118C2.20276 9.06067 2.81448 9.49097 3.99994 9.49097C5.18524 9.49097 5.79712 9.06067 6.33682 8.68118C6.81076 8.34793 7.18521 8.08472 7.99973 8.08472C8.81439 8.08472 9.18869 8.34793 9.66278 8.68118C10.2025 9.06067 10.8144 9.49097 11.9997 9.49097C13.1851 9.49097 13.797 9.06067 14.3369 8.68118C14.8108 8.34793 15.1852 8.08472 15.9999 8.08472C16.8146 8.08472 17.1889 8.34793 17.663 8.68118C18.2027 9.06067 18.8145 9.49097 20 9.49097V8.31909C19.1853 8.31909 18.8109 8.05573 18.3369 7.72247C17.7971 7.34299 17.1852 6.91284 15.9999 6.91284Z" fill="#3F433E"/>
<path d="M18.3369 0.809784C17.7971 0.430145 17.1852 0 15.9999 0C14.8145 0 14.2026 0.430145 13.6629 0.809784C13.1888 1.14304 12.8143 1.40625 11.9997 1.40625C11.1852 1.40625 10.8107 1.14304 10.3368 0.809784C9.79706 0.430145 9.18518 0 7.99973 0C6.81442 0 6.20255 0.430145 5.66284 0.809784C5.1889 1.14304 4.81445 1.40625 3.99994 1.40625C3.18542 1.40625 2.81097 1.14304 2.33704 0.809784C1.79718 0.430145 1.1853 0 0 0V1.17188C0.814667 1.17188 1.18896 1.43509 1.6629 1.76834C2.20276 2.14798 2.81448 2.57812 3.99994 2.57812C5.18524 2.57812 5.79712 2.14798 6.33682 1.76834C6.81076 1.43509 7.18521 1.17188 7.99973 1.17188C8.81439 1.17188 9.18869 1.43509 9.66278 1.76834C10.2025 2.14798 10.8144 2.57812 11.9997 2.57812C13.1851 2.57812 13.797 2.14798 14.3369 1.76834C14.8108 1.43509 15.1852 1.17188 15.9999 1.17188C16.8146 1.17188 17.1889 1.43509 17.663 1.76834C18.2027 2.14798 18.8145 2.57812 20 2.57812V1.40625C19.1853 1.40625 18.8109 1.14304 18.3369 0.809784Z" fill="#3F433E"/>
</svg>
