<svg width="22" height="22" viewBox="0 0 22 22" fill="none" xmlns="http://www.w3.org/2000/svg">
<path d="M6.01689 8.12608L3.68668 6.97121L3.50281 7.34607L5.81801 8.49715C5.46154 9.22036 5.25141 10.0307 5.22139 10.8826L2.61351 10.8826L2.61351 11.2991L5.22889 11.2991C5.2364 11.5566 5.26266 11.8065 5.30394 12.0526L1.12007 13.2832L1.2364 13.6846L5.38649 12.4616C5.48405 12.8667 5.62289 13.2567 5.7955 13.624L3.50657 14.7827L3.69043 15.1537L5.98687 13.9913C6.21201 14.3889 6.48218 14.7561 6.78987 15.0894L3.88555 18.3457L4.19325 18.6259L7.08255 15.3847C7.34522 15.6308 7.63415 15.8542 7.93809 16.0511L6.59099 18.3116L6.94371 18.5274L8.29081 16.2632C8.6848 16.479 9.10882 16.6494 9.55535 16.7668L8.54972 20.8902L8.95122 20.9886L9.9606 16.8501C10.2458 16.9031 10.5385 16.9371 10.8349 16.9485L10.8349 19.5914L11.2477 19.5914L11.2477 16.9523C11.5591 16.9409 11.863 16.9069 12.1595 16.8463L13.3565 21L13.7542 20.8826L12.561 16.7516C12.94 16.6494 13.3002 16.5093 13.6454 16.3351L15.1426 18.5994L15.4841 18.3684L14.0056 16.1344C14.4146 15.8883 14.7899 15.593 15.1276 15.2597L18.3771 18.2056L18.6548 17.8951L15.4128 14.953C15.6679 14.6577 15.8968 14.3396 16.0882 13.9989L18.4259 15.1121L18.6023 14.7334L16.2795 13.6278C16.4559 13.2567 16.5985 12.8629 16.6961 12.4502L20.8987 13.4915L21 13.0939L16.7786 12.0488C16.8199 11.7914 16.8462 11.5301 16.8537 11.265L19.5291 11.0416L19.4953 10.6251L16.8499 10.8485C16.8386 10.538 16.8011 10.2389 16.7448 9.94358L20.8874 8.72055L20.7711 8.31919L16.651 9.53085C16.531 9.08784 16.3621 8.66754 16.1482 8.27375L18.3621 6.99772L18.1557 6.63422L15.9343 7.91404C15.7129 7.56569 15.4578 7.24384 15.1689 6.95228L18.1144 3.6505L17.8068 3.3703L14.8687 6.66451C14.5872 6.41839 14.2871 6.19499 13.9606 6.00567L15.1051 3.77545L14.7373 3.58235L13.5929 5.80499C13.2176 5.61945 12.8161 5.47178 12.3996 5.36955L13.439 1.09844L13.0375 0.999988L11.9944 5.28625C11.6829 5.23324 11.364 5.20673 11.0375 5.20673L11.0901 2.57515L10.6773 2.56758L10.6248 5.22188C10.3734 5.24081 10.1257 5.2711 9.8818 5.32032L8.62852 0.992415L8.23077 1.1098L9.47655 5.41877C9.05629 5.53615 8.65103 5.69897 8.2758 5.90722L6.93246 3.57856L6.57599 3.78681L7.91932 6.11926C7.58537 6.33509 7.27392 6.58121 6.98874 6.85762L3.72045 3.90419L3.44653 4.21468L6.70356 7.16054C6.45216 7.45588 6.21951 7.78151 6.01689 8.12608ZM11.0413 5.63081C14.0206 5.63081 16.4447 8.07686 16.4447 11.0833C16.4447 14.0897 14.0206 16.5358 11.0413 16.5358C8.06191 16.5358 5.6379 14.0897 5.6379 11.0833C5.6379 8.07686 8.05816 5.63081 11.0413 5.63081Z" fill="#3F433E" stroke="#3F433E" stroke-width="0.5"/>
<path d="M5.30215 9.97562L5.40063 9.57114L1.10084 8.50507L1.00235 8.90955L5.30215 9.97562Z" fill="#3F433E" stroke="#3F433E" stroke-width="0.5"/>
</svg>
