<svg width="25" height="23" viewBox="0 0 25 23" fill="none" xmlns="http://www.w3.org/2000/svg">
<path d="M24.4336 2.24557C21.408 2.24557 17.1337 2.49872 14.9494 4.68187C14.0037 5.62758 13.5314 7.16926 13.654 8.91422C13.67 9.1447 13.8232 9.34107 14.0434 9.41377C14.2625 9.48529 14.5032 9.41829 14.6531 9.24236C15.8679 7.81302 17.3778 6.66753 19.1443 5.83763C19.2941 5.7661 19.4712 5.76041 19.6324 5.81719C19.7744 5.86828 19.8856 5.96476 19.9435 6.08854C20.0638 6.34286 20.0252 6.67775 19.6256 6.86619C19.6029 6.87753 19.5825 6.89232 19.5598 6.90254C19.5519 6.90594 19.5428 6.90483 19.5359 6.90823C15.1833 8.95403 13.0433 12.5234 12.0714 16.1937C11.363 11.5981 9.86674 8.89267 8.45332 7.23179C7.43045 5.9058 6.42455 5.20302 5.84332 4.80571C5.73545 4.73189 5.40966 4.5094 5.27454 4.37428C5.05316 4.1529 5.05316 3.793 5.27454 3.57162C5.49592 3.35136 5.85694 3.35136 6.10328 3.59658C6.16347 3.64995 6.25995 3.71807 6.38256 3.79981L6.48362 3.86793C7.30555 4.43101 8.83594 5.47661 10.1937 7.72787C10.3152 7.92882 10.5502 8.03669 10.7784 7.99353C11.01 7.95266 11.1916 7.77444 11.2371 7.54396C11.5334 6.03064 11.4005 3.78502 10.0507 2.43518C7.86645 0.253151 3.59211 8.35008e-09 0.567712 8.35008e-09C0.254321 -5.3208e-05 0 0.254268 0 0.567606C0 3.59312 0.25315 7.86746 2.4363 10.0518C3.34678 10.9623 4.75116 11.371 6.14639 11.371C7.28506 11.371 8.40106 11.086 9.25593 10.5921C10.4218 13.008 11.3528 16.6171 11.3528 22.138C11.3528 22.4513 11.6071 22.7056 11.9205 22.7056C12.2338 22.7056 12.4881 22.4513 12.4881 22.138C12.4881 19.058 13.016 15.3614 14.9789 12.3189C15.7657 13.0875 17.1201 13.5745 18.6209 13.6199C18.6958 13.6222 18.7696 13.6233 18.8434 13.6233C20.3681 13.6233 21.7156 13.1454 22.5637 12.2962C24.748 10.1119 25 5.83757 25 2.81201C25.0012 2.49872 24.748 2.24557 24.4336 2.24557Z" fill="white"/>
</svg>
