<svg width="40" height="37" viewBox="0 0 40 37" fill="none" xmlns="http://www.w3.org/2000/svg">
<path d="M39.0937 3.59292C34.2529 3.59292 27.4139 3.99796 23.919 7.49099C22.4059 9.00413 21.6503 11.4708 21.8465 14.2628C21.8719 14.6315 22.1172 14.9457 22.4695 15.062C22.82 15.1765 23.2052 15.0693 23.4449 14.7878C25.3886 12.5008 27.8044 10.6681 30.6308 9.3402C30.8706 9.22576 31.154 9.21665 31.4119 9.3075C31.639 9.38924 31.8169 9.54361 31.9096 9.74166C32.1021 10.1486 32.0404 10.6844 31.401 10.9859C31.3646 11.004 31.3319 11.0277 31.2957 11.0441C31.283 11.0495 31.2684 11.0477 31.2575 11.0532C24.2932 14.3264 20.8693 20.0374 19.3143 25.9099C18.1808 18.5569 15.7868 14.2283 13.5253 11.5709C11.8887 9.44927 10.2793 8.32483 9.34931 7.68913C9.17672 7.57103 8.65545 7.21504 8.43927 6.99885C8.08506 6.64464 8.08506 6.0688 8.43927 5.71459C8.79348 5.36217 9.37111 5.36217 9.76525 5.75452C9.86155 5.83992 10.0159 5.94891 10.2121 6.0797L10.3738 6.18868C11.6889 7.08962 14.1375 8.76257 16.3099 12.3646C16.5043 12.6861 16.8803 12.8587 17.2454 12.7896C17.616 12.7243 17.9066 12.4391 17.9793 12.0703C18.4534 9.64902 18.2409 6.05603 16.0811 3.89629C12.5863 0.405041 5.74737 1.33601e-08 0.90834 1.33601e-08C0.406914 -8.51329e-05 0 0.406829 0 0.90817C0 5.74899 0.405041 12.5879 3.89808 16.0828C5.35485 17.5396 7.60186 18.1935 9.83422 18.1935C11.6561 18.1935 13.4417 17.7376 14.8095 16.9474C16.675 20.8128 18.1645 26.5873 18.1645 35.4207C18.1645 35.9221 18.5714 36.329 19.0728 36.329C19.5741 36.329 19.981 35.9221 19.981 35.4207C19.981 30.4927 20.8257 24.5783 23.9663 19.7102C25.2251 20.94 27.3921 21.7193 29.7934 21.7919C29.9133 21.7956 30.0314 21.7973 30.1494 21.7973C32.589 21.7973 34.745 21.0326 36.1019 19.6739C39.5967 16.1791 40 9.34012 40 4.49921C40.002 3.99796 39.5968 3.59292 39.0937 3.59292Z" fill="#73AF86"/>
</svg>
