<svg width="25" height="25" viewBox="0 0 25 25" fill="none" xmlns="http://www.w3.org/2000/svg">
<path d="M19.1406 25H5.85938C2.62852 25 0 22.3715 0 19.1406V5.85938C0 2.62852 2.62852 0 5.85938 0H19.1406C22.3715 0 25 2.62852 25 5.85938V19.1406C25 22.3715 22.3715 25 19.1406 25ZM5.85938 1.95312C3.70547 1.95312 1.95312 3.70547 1.95312 5.85938V19.1406C1.95312 21.2945 3.70547 23.0469 5.85938 23.0469H19.1406C21.2945 23.0469 23.0469 21.2945 23.0469 19.1406V5.85938C23.0469 3.70547 21.2945 1.95312 19.1406 1.95312H5.85938ZM14.8926 6.93359C14.2184 6.93359 13.6719 7.48013 13.6719 8.1543C13.6719 8.82847 14.2184 9.375 14.8926 9.375C15.5667 9.375 16.1133 8.82847 16.1133 8.1543C16.1133 7.48013 15.5667 6.93359 14.8926 6.93359ZM10.6934 8.20312C10.0192 8.20312 9.47266 8.74966 9.47266 9.42383C9.47266 10.098 10.0192 10.6445 10.6934 10.6445C11.3675 10.6445 11.9141 10.098 11.9141 9.42383C11.9141 8.74966 11.3675 8.20312 10.6934 8.20312ZM18.9941 5.12695C18.32 5.12695 17.7734 5.67349 17.7734 6.34766C17.7734 7.02183 18.32 7.56836 18.9941 7.56836C19.6683 7.56836 20.2148 7.02183 20.2148 6.34766C20.2148 5.67349 19.6683 5.12695 18.9941 5.12695ZM10.9389 15.873C10.1868 15.8137 9.56377 16.4367 9.62305 17.1889C9.66973 17.7806 10.1491 18.26 10.7408 18.3066C11.4929 18.3659 12.1159 17.7429 12.0566 16.9908C12.01 16.3991 11.5306 15.9197 10.9389 15.873ZM6.00586 17.1875C5.33169 17.1875 4.78516 17.734 4.78516 18.4082C4.78516 19.0824 5.33169 19.6289 6.00586 19.6289C6.68003 19.6289 7.22656 19.0824 7.22656 18.4082C7.22656 17.734 6.68003 17.1875 6.00586 17.1875ZM7.32422 12.7441C6.65005 12.7441 6.10352 13.2907 6.10352 13.9648C6.10352 14.639 6.65005 15.1855 7.32422 15.1855C7.99839 15.1855 8.54492 14.639 8.54492 13.9648C8.54492 13.2907 7.99839 12.7441 7.32422 12.7441ZM13.0859 12.0605C12.4118 12.0605 11.8652 12.6071 11.8652 13.2812C11.8652 13.9554 12.4118 14.502 13.0859 14.502C13.7601 14.502 14.3066 13.9554 14.3066 13.2812C14.3066 12.6071 13.7601 12.0605 13.0859 12.0605ZM17.7246 10.9863C17.0504 10.9863 16.5039 11.5329 16.5039 12.207C16.5039 12.8812 17.0504 13.4277 17.7246 13.4277C18.3988 13.4277 18.9453 12.8812 18.9453 12.207C18.9453 11.5329 18.3988 10.9863 17.7246 10.9863Z" fill="white"/>
</svg>
