<svg width="17" height="20" viewBox="0 0 17 20" fill="none" xmlns="http://www.w3.org/2000/svg">
<path d="M6.87465 0.00111008H0.624968C0.27979 0.00111008 0 0.280901 0 0.626078V19.3751C0 19.7203 0.27979 20.0001 0.624968 20.0001H6.87465C7.21983 20.0001 7.49962 19.7203 7.49962 19.3751V0.626078C7.49962 0.280901 7.21979 0.00111008 6.87465 0.00111008ZM6.24968 18.7502H1.24994V16.8753H4.37478V15.6253H1.24994V13.7504H3.12484V12.5005H1.24994V10.6256H4.37478V9.37563H1.24994V7.50073H3.12484V6.25079H1.24994V4.37589H4.37478V3.12595H1.24994V1.25105H6.24968V18.7502Z" fill="#3F433E"/>
<path d="M15.1867 15.8122L13.1243 17.8684V2.13165L15.1805 4.1878L16.0617 3.30659L12.9368 0.181749C12.6931 -0.0605829 12.2994 -0.0605829 12.0556 0.181749L8.93079 3.30659L9.81199 4.1878L11.8744 2.13165V17.8684L9.81824 15.8122L8.93704 16.6934L12.0619 19.8183C12.3057 20.0606 12.6993 20.0606 12.9431 19.8183L16.0679 16.6934L15.1867 15.8122Z" fill="#3F433E"/>
</svg>
